STARTFONT 2.1
FONT -Monotype-Plantin-Regular-I-Normal--36-360-75-75-P-212-iso8859-5
SIZE 36 75 75
FONTBOUNDINGBOX 49 43 -6 -10

STARTPROPERTIES 24
FOUNDRY "Monotype"
FAMILY_NAME "Plantin"
WEIGHT_NAME "Regular"
SLANT "I"
SETWIDTH_NAME "Normal"
ADD_STYLE_NAME ""
PIXEL_SIZE 36
POINT_SIZE 360
RESOLUTION_X 75
RESOLUTION_Y 75
SPACING "P"
AVERAGE_WIDTH 212
CHARSET_REGISTRY "iso8859"
CHARSET_ENCODING "5"
FACE_NAME "Plantin Inclined ISO Latin Cyrillic"
_DEC_DEVICE_FONTNAMES "PS=plantin-in-latcyrillic"
COPYRIGHT "Copyright (c) 1993 Monotype Typography Ltd."
CAP_HEIGHT 29
X_HEIGHT 19
WEIGHT 10
QUAD_WIDTH 25
DEFAULT_CHAR 160
FONT_DESCENT 10
FONT_ASCENT 33
ENDPROPERTIES

CHARS 191

STARTCHAR space
ENCODING 32
SWIDTH 250 0
DWIDTH 10 0
BBX 0 0 0 0
BITMAP
ENDCHAR

STARTCHAR exclam
ENCODING 33
SWIDTH 312 0
DWIDTH 12 0
BBX 12 27 1 0
BITMAP
00E0
00F0
01E0
01E0
01E0
01C0
03C0
0380
0380
0380
0700
0700
0600
0600
0600
0C00
0C00
0C00
0800
0000
0000
0000
7000
F800
F800
F800
7000
ENDCHAR

STARTCHAR quotedbl
ENCODING 34
SWIDTH 417 0
DWIDTH 16 0
BBX 11 11 9 15
BITMAP
3060
78E0
71E0
F1E0
F1C0
E1C0
E180
C180
C180
8100
8300
ENDCHAR

STARTCHAR numbersign
ENCODING 35
SWIDTH 500 0
DWIDTH 19 0
BBX 17 26 1 0
BITMAP
030300
030300
030300
020200
020200
060600
060600
060400
040400
FFFF80
0C0C00
0C0C00
0C0800
080800
081800
181800
FFFF80
FFFF80
101000
303000
303000
303000
202000
202000
606000
606000
ENDCHAR

STARTCHAR dollar
ENCODING 36
SWIDTH 490 0
DWIDTH 19 0
BBX 18 30 2 -4
BITMAP
002600
003400
01FF00
03C580
074980
0649C0
0649C0
0E91C0
0E9000
079000
079000
03E000
03E000
01E000
02F000
027800
027800
025C00
049C00
449C00
E49C00
E49C00
C91800
E93000
796000
3FC000
1E0000
120000
120000
140000
ENDCHAR

STARTCHAR percent
ENCODING 37
SWIDTH 729 0
DWIDTH 28 0
BBX 28 27 0 -1
BITMAP
07800070
1CE000C0
386001C0
70700380
70700300
60700600
E0700C00
E0601800
E0E03000
E0E06000
61C0C000
73818000
3F030000
00060000
000C0FC0
00181CE0
00303860
00607070
00C07070
01806070
0300E070
0600E060
0E00E0E0
1C0060E0
180061C0
30007380
E0003E00
ENDCHAR

STARTCHAR ampersand
ENCODING 38
SWIDTH 948 0
DWIDTH 36 0
BBX 34 26 3 0
BITMAP
003FC00000
00F1F00000
01C0F00000
0380700000
0780700000
0700000000
0700000380
07800007C0
07C00003C0
03F07F00C0
0F80FFC040
1C0183F0C0
300300BF80
700300DF00
E003804000
E003E04000
E001E04000
E000E04000
F00000C000
F000008000
7800018000
7E00070000
3F801E0000
1FFFFC0000
07FFF00000
007F800000
ENDCHAR

STARTCHAR quoteright
ENCODING 39
SWIDTH 313 0
DWIDTH 12 0
BBX 7 10 6 16
BITMAP
3C
3E
3E
1E
0E
06
0E
0C
38
E0
ENDCHAR

STARTCHAR parenleft
ENCODING 40
SWIDTH 448 0
DWIDTH 17 0
BBX 17 33 5 -7
BITMAP
000380
000F00
001E00
007800
00E000
01C000
038000
070000
0E0000
0C0000
1C0000
180000
380000
300000
700000
700000
600000
600000
E00000
E00000
E00000
E00000
E00000
600000
600000
600000
700000
300000
380000
180000
1C0000
0E0000
040000
ENDCHAR

STARTCHAR parenright
ENCODING 41
SWIDTH 437 0
DWIDTH 17 0
BBX 17 33 -4 -7
BITMAP
003000
001800
001C00
000E00
000600
000600
000300
000300
000300
000380
000380
000380
000380
000380
000380
000300
000300
000700
000700
000600
000E00
000C00
001C00
003800
003800
007000
00E000
01C000
078000
0E0000
3C0000
F00000
600000
ENDCHAR

STARTCHAR asterisk
ENCODING 42
SWIDTH 521 0
DWIDTH 20 0
BBX 16 16 6 12
BITMAP
0040
00C0
00C0
81C0
F9C0
3FC0
1FFF
0FFF
07F8
0FC0
1FE0
3DE0
70E0
4060
0070
0030
ENDCHAR

STARTCHAR plus
ENCODING 43
SWIDTH 667 0
DWIDTH 25 0
BBX 21 21 2 2
BITMAP
007000
007000
007000
007000
007000
007000
007000
007000
007000
FFFFF8
FFFFF8
FFFFF8
007000
007000
007000
007000
007000
007000
007000
007000
007000
ENDCHAR

STARTCHAR comma
ENCODING 44
SWIDTH 313 0
DWIDTH 12 0
BBX 9 12 0 -6
BITMAP
0400
1F00
1F00
1F80
0F80
0380
0380
0300
0600
0E00
F800
C000
ENDCHAR

STARTCHAR minus
ENCODING 45
SWIDTH 667 0
DWIDTH 25 0
BBX 20 3 3 11
BITMAP
FFFFF0
FFFFF0
FFFFF0
ENDCHAR

STARTCHAR period
ENCODING 46
SWIDTH 312 0
DWIDTH 12 0
BBX 5 5 2 0
BITMAP
70
F8
F8
F8
70
ENDCHAR

STARTCHAR slash
ENCODING 47
SWIDTH 281 0
DWIDTH 11 0
BBX 16 27 -1 -1
BITMAP
0007
0004
000C
0008
0018
0010
0030
0020
0060
0040
00C0
0080
0180
0100
0300
0200
0600
0C00
0C00
1800
1800
3000
2000
6000
4000
C000
8000
ENDCHAR

STARTCHAR zero
ENCODING 48
SWIDTH 521 0
DWIDTH 20 0
BBX 17 25 3 0
BITMAP
00FC00
01CE00
070700
060300
0E0300
1C0380
3C0380
3C0380
380380
780380
780780
700780
F00780
F00700
F00F00
E00F00
E00E00
E01E00
E01C00
E01C00
603800
607000
306000
39C000
1F8000
ENDCHAR

STARTCHAR one
ENCODING 49
SWIDTH 521 0
DWIDTH 20 0
BBX 13 25 4 0
BITMAP
0018
0078
00F0
07F0
07F0
00E0
00E0
01E0
01E0
01C0
01C0
03C0
03C0
0380
0380
0780
0700
0700
0700
0F00
0E00
0E00
1E00
3F00
FFC0
ENDCHAR

STARTCHAR two
ENCODING 50
SWIDTH 521 0
DWIDTH 20 0
BBX 18 25 2 0
BITMAP
00FE00
03FF00
070F80
1C07C0
0803C0
0003C0
0003C0
000380
000380
000700
000E00
001C00
001C00
003000
006000
00C000
018000
030000
060000
0C0300
180600
300E00
7FFE00
FFFC00
FFFC00
ENDCHAR

STARTCHAR three
ENCODING 51
SWIDTH 521 0
DWIDTH 20 0
BBX 18 25 1 0
BITMAP
007F00
01FF80
0387C0
0703C0
0001C0
0001C0
0001C0
0003C0
000780
000F00
003C00
07E000
07F800
003C00
001E00
000E00
000F00
000F00
000F00
000F00
000E00
001E00
603C00
FC7800
7FC000
ENDCHAR

STARTCHAR four
ENCODING 52
SWIDTH 521 0
DWIDTH 20 0
BBX 18 26 2 -1
BITMAP
0001C0
0003C0
000780
000F80
001B80
003700
006700
00C700
018F00
030E00
060E00
0C0E00
181E00
301C00
601C00
E03C00
FFFFC0
FFFF80
003800
007800
007000
007000
007000
00F000
00E000
00E000
ENDCHAR

STARTCHAR five
ENCODING 53
SWIDTH 521 0
DWIDTH 20 0
BBX 18 26 2 0
BITMAP
000040
00FFC0
01FF80
01FF80
030000
020000
040000
060000
0FC000
0FF000
03F800
00FC00
003E00
001E00
000F00
000700
000700
000700
000700
000600
000600
000C00
001C00
F03000
FFE000
7F0000
ENDCHAR

STARTCHAR six
ENCODING 54
SWIDTH 521 0
DWIDTH 20 0
BBX 17 25 3 0
BITMAP
000380
001F00
007C00
00F000
03E000
078000
0F0000
0F0000
1E0000
3C0000
39F800
7BFC00
7C1E00
F80E00
F00F00
F00F00
E00F00
E00F00
E00E00
E00E00
E01E00
701C00
303800
1CF000
0FC000
ENDCHAR

STARTCHAR seven
ENCODING 55
SWIDTH 521 0
DWIDTH 20 0
BBX 18 25 4 0
BITMAP
1FFFC0
1FFF80
1FFF00
180300
300600
200E00
000C00
001800
003800
003000
006000
00E000
00C000
018000
038000
030000
060000
0E0000
0C0000
1C0000
180000
300000
700000
600000
C00000
ENDCHAR

STARTCHAR eight
ENCODING 56
SWIDTH 521 0
DWIDTH 20 0
BBX 18 25 2 0
BITMAP
00FE00
038700
070380
0601C0
0E01C0
0E01C0
0E01C0
070380
078780
03CE00
03FC00
01F000
07F800
0F7C00
3C3C00
781E00
700E00
E00F00
E00700
E00700
E00700
600E00
701C00
3C7800
0FE000
ENDCHAR

STARTCHAR nine
ENCODING 57
SWIDTH 521 0
DWIDTH 20 0
BBX 17 26 3 -1
BITMAP
01F800
079E00
0E0600
1C0700
1C0380
380380
380380
780380
780380
780380
780780
780780
3C0F80
3E3F00
1FF700
0FDE00
001E00
003C00
007800
007000
00F000
03C000
078000
1F0000
7C0000
E00000
ENDCHAR

STARTCHAR colon
ENCODING 58
SWIDTH 312 0
DWIDTH 12 0
BBX 9 17 1 0
BITMAP
0700
0F80
0F80
0F80
0700
0000
0000
0000
0000
0000
0000
0000
7000
F800
F800
F800
7000
ENDCHAR

STARTCHAR semicolon
ENCODING 59
SWIDTH 312 0
DWIDTH 12 0
BBX 13 23 -1 -6
BITMAP
0070
00F8
00F8
00F8
0070
0000
0000
0000
0000
0000
0000
0400
1F00
1F00
1F80
0F80
0380
0380
0300
0700
0E00
F800
E000
ENDCHAR

STARTCHAR less
ENCODING 60
SWIDTH 667 0
DWIDTH 25 0
BBX 20 19 3 3
BITMAP
000030
0000F0
0007F0
001FC0
00FF00
03FC00
0FE000
7F8000
FC0000
E00000
FC0000
7F0000
1FE000
03F800
00FE00
003FC0
0007F0
0001F0
000030
ENDCHAR

STARTCHAR equal
ENCODING 61
SWIDTH 667 0
DWIDTH 25 0
BBX 20 12 3 6
BITMAP
FFFFF0
FFFFF0
FFFFF0
000000
000000
000000
000000
000000
000000
FFFFF0
FFFFF0
FFFFF0
ENDCHAR

STARTCHAR greater
ENCODING 62
SWIDTH 667 0
DWIDTH 25 0
BBX 20 19 3 3
BITMAP
800000
F00000
FC0000
7F0000
1FE000
03F800
00FF00
001FC0
0007F0
0000F0
0003F0
001FC0
007F00
03FC00
0FE000
7F8000
FE0000
F00000
C00000
ENDCHAR

STARTCHAR question
ENCODING 63
SWIDTH 406 0
DWIDTH 15 0
BBX 13 26 2 0
BITMAP
0780
0FC0
0FE0
0430
0030
0018
0018
0018
0018
0038
0038
00F0
0FF0
1FE0
1FC0
1C00
1800
1000
3000
0000
0000
7000
F800
F800
F800
7000
ENDCHAR

STARTCHAR at
ENCODING 64
SWIDTH 917 0
DWIDTH 35 0
BBX 33 35 1 -8
BITMAP
0003FC0000
001C038000
007000C000
00C0002000
0380001000
0700000800
0E00000C00
0C00000400
1800000400
1800F38600
30038B0200
30060B0200
600E070200
601C0E0200
60180E0200
C0380E0200
C0700E0200
C0701C0600
C0E01C0400
C0E03C0C00
C0E0380800
C0E0581800
40E0B83000
60F3386000
607E38C180
203C1F0300
3000000200
1000000600
1800000C00
0C00000800
0600003000
0300006000
00C001C000
00380F0000
000FF80000
ENDCHAR

STARTCHAR A
ENCODING 65
SWIDTH 729 0
DWIDTH 28 0
BBX 28 26 -2 0
BITMAP
000001E0
000003C0
000007C0
00000DC0
00001BC0
00003BC0
000033C0
000063C0
0000C3C0
000183C0
00030380
00070380
000E0380
00080380
001FFF80
003FFF80
00600780
00E00780
01C00780
01800780
03000700
06000700
0E000700
1E000F80
7F001FC0
FFC0FFF0
ENDCHAR

STARTCHAR B
ENCODING 66
SWIDTH 698 0
DWIDTH 27 0
BBX 26 26 0 0
BITMAP
03FFFC00
01F81F00
00F80F80
007807C0
007003C0
007003C0
00F003C0
00F003C0
00E00780
01E00780
01E00F00
01C07C00
01FFE000
03C0F800
03803E00
03801E00
07800F00
07800F00
07000F00
07000F00
0F001F00
0F001E00
1F003C00
3F807800
FFFFF000
FFFF8000
ENDCHAR

STARTCHAR C
ENCODING 67
SWIDTH 708 0
DWIDTH 27 0
BBX 26 26 2 0
BITMAP
000FF800
007C1F00
00F007C0
03C003C0
07800180
0F000180
1E000180
1E000180
3C000000
3C000000
78000000
78000000
F8000000
F0000000
F0000000
F0000000
F0000000
F0000600
F0000C00
78000C00
78001C00
3C003C00
1C003800
0F00F000
07C3E000
01FF0000
ENDCHAR

STARTCHAR D
ENCODING 68
SWIDTH 781 0
DWIDTH 30 0
BBX 29 26 0 0
BITMAP
03FFFC00
00FC1F00
00780780
007803C0
007801E0
007800F0
007000F0
00F000F8
00F00078
00E00078
01E00078
01E00078
01E00078
01C00078
03C00078
03C000F8
03C000F0
038000F0
078001E0
078001E0
078003C0
0F000380
0F800F00
1F801E00
7FC0F800
FFFFE000
ENDCHAR

STARTCHAR E
ENCODING 69
SWIDTH 656 0
DWIDTH 25 0
BBX 27 26 0 0
BITMAP
03FFFFE0
00FC03C0
007801C0
007800C0
007800C0
00780080
00700000
00F00000
00F00600
00E00400
01E00C00
01E07C00
01FFFC00
01C07800
03C03800
03C01800
03C01800
03800000
07800000
07800000
07000300
0F000600
0F000E00
1F801E00
3FC0FC00
FFFFFC00
ENDCHAR

STARTCHAR F
ENCODING 70
SWIDTH 635 0
DWIDTH 24 0
BBX 27 26 0 0
BITMAP
03FFFFE0
00FC03C0
007801C0
007800C0
007800C0
007800C0
00700000
00F00000
00F00600
00F00600
00E00C00
01E07C00
01FFFC00
01C07C00
03C03800
03C01800
03C01800
03800000
07800000
07800000
07800000
0F000000
0F000000
1F800000
3FC00000
FFF00000
ENDCHAR

STARTCHAR G
ENCODING 71
SWIDTH 792 0
DWIDTH 30 0
BBX 27 26 3 0
BITMAP
0007FE00
003C0F80
00F003E0
03C001E0
078001C0
0F0000C0
1E0000C0
3C0000C0
3C000000
78000000
78000000
F8000000
F8000000
F000FFE0
F0003F80
F0001F00
F0001E00
F0001E00
F8001C00
78003C00
78003C00
3C003C00
1E003800
0F00F800
03FFE000
007E0000
ENDCHAR

STARTCHAR H
ENCODING 72
SWIDTH 823 0
DWIDTH 31 0
BBX 34 26 0 0
BITMAP
03FF81FFC0
00FF007F80
007C003E00
007C003E00
0078003C00
0078003C00
0078003C00
0070003800
00F0007800
00F0007800
00F0007000
01E000F000
01FFFFF000
01FFFFF000
01C000E000
03C001E000
03C001E000
03C001C000
038001C000
078003C000
078003C000
0700038000
0F00078000
1F800FC000
3F801FE000
FFE07FF000
ENDCHAR

STARTCHAR I
ENCODING 73
SWIDTH 375 0
DWIDTH 14 0
BBX 17 26 0 0
BITMAP
03FF80
01FF00
007E00
007C00
007800
007800
007000
00F000
00F000
00F000
00E000
01E000
01E000
01E000
01C000
03C000
03C000
038000
078000
078000
078000
070000
0F0000
1F8000
3FC000
FFE000
ENDCHAR

STARTCHAR J
ENCODING 74
SWIDTH 479 0
DWIDTH 18 0
BBX 24 33 -3 -7
BITMAP
001C06
007F0F
00FF8F
0087EE
0183FC
01C0B8
01E070
01E070
00C0F0
0000F0
0000E0
003FFC
003FFC
0001C0
0003C0
0003C0
0003C0
000780
000780
000780
000700
000F00
000F00
000E00
001E00
001E00
001C00
003C00
003800
F07000
F0E000
7FC000
3E0000
ENDCHAR

STARTCHAR K
ENCODING 75
SWIDTH 771 0
DWIDTH 29 0
BBX 33 26 0 0
BITMAP
03FFC3FF80
00FF00FF00
007C00F800
007800F000
007801C000
0078038000
0070060000
00F01C0000
00F0380000
00F0E00000
00E3800000
01E7000000
01EF000000
01CF800000
03C7C00000
03C3C00000
03C3E00000
0381F00000
0780F80000
07807C0000
07803E0000
0F001F0000
0F001F8000
1F800FC000
3FC007F800
FFF001F800
ENDCHAR

STARTCHAR L
ENCODING 76
SWIDTH 646 0
DWIDTH 25 0
BBX 24 26 1 0
BITMAP
03FF00
01FE00
00F800
00F800
00F000
00F000
00E000
01E000
01E000
01C000
01C000
03C000
03C000
038000
078000
078000
078000
070000
0F0000
0F0000
0E0007
1E0006
1E001C
3F003C
7F80FC
FFFFF8
ENDCHAR

STARTCHAR M
ENCODING 77
SWIDTH 979 0
DWIDTH 37 0
BBX 40 26 -1 0
BITMAP
007F8000FF
003F8000FE
000F8001F8
000F8001F0
000F8003F0
001B8002E0
001B8006E0
0013800DE0
0033C009E0
0033C019E0
0063C031E0
0063C021E0
0041C061C0
00C1C0C1C0
00C1C081C0
0181E181C0
0181E303C0
0301E603C0
0300E603C0
0300EC03C0
0600E803C0
0600F803C0
0E00F003C0
1E00E007C0
3F00E00FE0
FFC0E03FF0
ENDCHAR

STARTCHAR N
ENCODING 78
SWIDTH 812 0
DWIDTH 31 0
BBX 34 26 0 0
BITMAP
07F000FFC0
00F8003F00
0078001E00
007C000C00
007C000C00
005E000800
005F001800
00CF001800
00C7801000
0087801000
0083C03000
0183C03000
0181E02000
0101E02000
0100F06000
0300F84000
0300784000
02003CC000
06003CC000
06001E8000
06001E8000
06000F8000
0E000F8000
1E00078000
3F0007C000
FFC003E000
ENDCHAR

STARTCHAR O
ENCODING 79
SWIDTH 792 0
DWIDTH 30 0
BBX 26 26 4 0
BITMAP
001FF000
00787800
00E01E00
03800F00
07000700
0F000780
1E000380
1C0003C0
3C0003C0
380003C0
780003C0
780003C0
F80003C0
F00007C0
F00007C0
F0000780
F0000F80
F0000F00
F0000F00
70001E00
78003C00
38003800
3C007000
1E01E000
07878000
01FE0000
ENDCHAR

STARTCHAR P
ENCODING 80
SWIDTH 615 0
DWIDTH 23 0
BBX 26 26 0 0
BITMAP
03FFFC00
00F83F00
00780F80
00780780
007803C0
007003C0
00F003C0
00F003C0
00F003C0
00E00780
01E00F80
01E01F00
01C7FC00
01C3F000
03C00000
03C00000
03800000
07800000
07800000
07800000
07000000
0F000000
0F000000
1F800000
FFF00000
FFE00000
ENDCHAR

STARTCHAR Q
ENCODING 81
SWIDTH 792 0
DWIDTH 30 0
BBX 26 33 4 -7
BITMAP
001FF000
00787800
00E01E00
03800F00
07800700
0F000780
1E000380
1C0003C0
3C0003C0
380003C0
780003C0
780003C0
F80003C0
F00007C0
F00007C0
F0000780
F0000780
F0000F00
F0000F00
70001E00
78003C00
38003800
3C007000
1E00E000
0F038000
03FE0000
00600000
00C00000
03800040
06FE01C0
1FFFFF80
3FFFFE00
700FE000
ENDCHAR

STARTCHAR R
ENCODING 82
SWIDTH 698 0
DWIDTH 27 0
BBX 26 26 0 0
BITMAP
03FFFC00
00F83F00
00780F80
00780780
007803C0
007003C0
00F003C0
00F003C0
00F007C0
00E00780
01E01F00
01E0FE00
01FFF000
01C78000
03C3C000
03C1C000
0381E000
0780E000
0780F000
0780F000
07007800
0F007800
0F003C00
1F803E00
7FC01FC0
FFE01F80
ENDCHAR

STARTCHAR S
ENCODING 83
SWIDTH 604 0
DWIDTH 23 0
BBX 22 26 2 0
BITMAP
007FC0
00F0F8
03C03C
03801C
07801C
07800C
078008
03C008
03E000
01F000
01F800
00FC00
007E00
003F00
001F80
0007C0
0007C0
4003E0
6001E0
6001E0
E001E0
E001C0
F003C0
F80380
3F1F00
07FC00
ENDCHAR

STARTCHAR T
ENCODING 84
SWIDTH 667 0
DWIDTH 25 0
BBX 25 26 4 0
BITMAP
3FFFFF80
3C1E0F80
701E0380
701E0300
601C0300
C03C0300
003C0000
003C0000
00380000
00780000
00780000
00700000
00F00000
00F00000
00F00000
00E00000
01E00000
01E00000
01E00000
01C00000
03C00000
03C00000
07C00000
07C00000
1FE00000
7FF80000
ENDCHAR

STARTCHAR U
ENCODING 85
SWIDTH 771 0
DWIDTH 29 0
BBX 28 26 5 0
BITMAP
FFF03FF0
3F800FC0
1F000780
1E000300
1E000700
1E000600
1C000600
3C000600
3C000400
3C000400
38000C00
78000C00
78000C00
70000800
70001800
F0001800
F0001800
E0001000
E0003000
E0003000
F0006000
F0006000
7800C000
3E078000
1FFF0000
07FC0000
ENDCHAR

STARTCHAR V
ENCODING 86
SWIDTH 719 0
DWIDTH 27 0
BBX 27 26 5 0
BITMAP
FFE07FE0
3F801FC0
1F000F00
0E000F00
1E000E00
1E000C00
1E001800
1E003000
1E006000
1E006000
1E00C000
1E018000
1E030000
1E060000
1E0C0000
1E0C0000
1E180000
1E300000
1E600000
1EC00000
1F800000
1F000000
1F000000
1E000000
1C000000
18000000
ENDCHAR

STARTCHAR W
ENCODING 87
SWIDTH 979 0
DWIDTH 37 0
BBX 38 26 5 0
BITMAP
FF9FE7F3FC
7F0FC7F3F8
3E0781C1F0
3C078380E0
3C078301C0
1C07860180
1C078C0300
1C038C0600
1C03980600
1C03B00C00
1C03E01800
1C03C03000
1C03C03000
1C03C06000
1E07C0C000
1E0DC18000
1E19C30000
1E31C30000
1E31C60000
1E61CC0000
1EC1F80000
1F81F00000
0F01F00000
0E01E00000
0C01C00000
1C01C00000
ENDCHAR

STARTCHAR X
ENCODING 88
SWIDTH 781 0
DWIDTH 30 0
BBX 34 26 -1 0
BITMAP
00FFE0FFC0
007F807F80
001F003E00
001F003C00
000F003000
000F006000
000780C000
0007818000
0003C70000
0003EE0000
0001E80000
0001F00000
0000F00000
0001F80000
0003B80000
00067C0000
000C3C0000
00183E0000
00701E0000
00E01F0000
01C00F0000
03800F8000
0F80078000
1F800FC000
7FE03FF800
FFE07FF800
ENDCHAR

STARTCHAR Y
ENCODING 89
SWIDTH 719 0
DWIDTH 27 0
BBX 27 26 4 0
BITMAP
FFE03FE0
3F801FC0
1F000F80
1F000F00
0F000E00
0F000C00
07801800
07803000
03806000
03C0C000
03C1C000
01E18000
01E30000
00E60000
00FC0000
00F80000
00700000
00F00000
00F00000
00F00000
00E00000
01E00000
01E00000
03F00000
07F00000
1FFC0000
ENDCHAR

STARTCHAR Z
ENCODING 90
SWIDTH 625 0
DWIDTH 24 0
BBX 26 26 0 0
BITMAP
01FFFFC0
01F007C0
01C00F80
03801F00
03003E00
02007C00
0000F800
0001F000
0003E000
0003C000
0007C000
000F8000
001F0000
003E0000
007C0000
00F80000
01F00000
03E00000
03C00000
07C00600
0F800C00
1F001C00
3E003800
7C007800
F801F800
FFFFF000
ENDCHAR

STARTCHAR bracketleft
ENCODING 91
SWIDTH 375 0
DWIDTH 14 0
BBX 18 33 1 -7
BITMAP
003FC0
007C00
007800
007000
007000
00E000
00E000
00E000
01E000
01C000
01C000
03C000
038000
038000
038000
070000
070000
070000
0F0000
0E0000
0E0000
1E0000
1C0000
1C0000
3C0000
380000
380000
380000
780000
700000
700000
F80000
FF0000
ENDCHAR

STARTCHAR backslash
ENCODING 92
SWIDTH 281 0
DWIDTH 11 0
BBX 5 27 4 -1
BITMAP
C0
C0
C0
40
40
40
40
40
60
60
60
20
20
20
20
20
30
30
30
10
10
10
10
10
18
18
18
ENDCHAR

STARTCHAR bracketright
ENCODING 93
SWIDTH 375 0
DWIDTH 14 0
BBX 18 33 -4 -7
BITMAP
003FC0
0007C0
0003C0
000380
000380
000780
000700
000700
000F00
000E00
000E00
001E00
001C00
001C00
001C00
003C00
003800
003800
007800
007000
007000
00F000
00E000
00E000
00E000
01E000
01C000
01C000
03C000
038000
078000
0F8000
FF0000
ENDCHAR

STARTCHAR asciicircum
ENCODING 94
SWIDTH 427 0
DWIDTH 16 0
BBX 16 14 0 12
BITMAP
0080
0180
03C0
0340
0660
0430
0C30
1818
1808
300C
2006
6006
C003
C001
ENDCHAR

STARTCHAR underscore
ENCODING 95
SWIDTH 500 0
DWIDTH 19 0
BBX 19 2 0 -10
BITMAP
FFFFE0
FFFFE0
ENDCHAR

STARTCHAR quoteleft
ENCODING 96
SWIDTH 312 0
DWIDTH 12 0
BBX 7 10 7 16
BITMAP
0E
38
70
60
C0
E0
F0
F8
F8
78
ENDCHAR

STARTCHAR a
ENCODING 97
SWIDTH 521 0
DWIDTH 20 0
BBX 18 17 2 0
BITMAP
00F980
038F80
060F00
0C0700
1C0F00
180E00
300E00
700E00
701C00
601C00
E03C00
E05C00
E058C0
F0B980
7F3B00
7F3E00
3C1C00
ENDCHAR

STARTCHAR b
ENCODING 98
SWIDTH 469 0
DWIDTH 18 0
BBX 15 26 2 0
BITMAP
1F80
0780
0700
0700
0700
0E00
0E00
0E00
0C00
1C70
1DFC
1DFC
3A1E
3C0E
3C0E
780E
700E
700C
F01C
E018
E038
E030
E060
F0C0
7F80
3E00
ENDCHAR

STARTCHAR c
ENCODING 99
SWIDTH 385 0
DWIDTH 15 0
BBX 13 17 1 0
BITMAP
01F0
0338
0638
0C38
1800
3800
3000
7000
6000
E000
E000
E000
E038
F060
79C0
7F80
3F00
ENDCHAR

STARTCHAR d
ENCODING 100
SWIDTH 500 0
DWIDTH 19 0
BBX 19 26 1 0
BITMAP
0007E0
0001E0
0000E0
0001C0
0001C0
0001C0
0001C0
000380
000380
00FD80
039F80
060F00
0C0700
180700
180E00
300E00
700E00
701E00
E01C00
E03C00
E01C00
E078C0
F0D980
F1BB00
7F3E00
3E1C00
ENDCHAR

STARTCHAR e
ENCODING 101
SWIDTH 385 0
DWIDTH 15 0
BBX 13 17 1 0
BITMAP
00F0
03F8
0638
0C18
1818
1830
3070
70C0
6780
7C00
E000
E000
E038
F060
F9E0
7FC0
3F00
ENDCHAR

STARTCHAR f
ENCODING 102
SWIDTH 281 0
DWIDTH 11 0
BBX 22 33 -5 -7
BITMAP
000070
0000F8
00039C
000308
000700
000600
000E00
000E00
000E00
001C00
01FFC0
001C00
001C00
003800
003800
003800
003800
007000
007000
007000
007000
00E000
00E000
00E000
00C000
01C000
01C000
018000
038000
430000
E20000
FC0000
780000
ENDCHAR

STARTCHAR g
ENCODING 103
SWIDTH 448 0
DWIDTH 17 0
BBX 20 24 -1 -7
BITMAP
007FE0
00C7F0
0183A0
038380
070380
070380
070380
070700
070600
039C00
01F800
060000
0C0000
1C0000
1F8000
0FF000
1FF800
30FC00
601E00
C00E00
C00E00
E00C00
783800
1FE000
ENDCHAR

STARTCHAR h
ENCODING 104
SWIDTH 521 0
DWIDTH 20 0
BBX 18 26 2 0
BITMAP
0FE000
03C000
01C000
03C000
038000
038000
038000
070000
070000
070F00
0E1F80
0E3380
0E4380
1CC380
1D8700
1F0700
3A0700
3E0E00
3C0E00
380C00
781C00
701CC0
703880
E03B00
E03E00
E03C00
ENDCHAR

STARTCHAR i
ENCODING 105
SWIDTH 271 0
DWIDTH 10 0
BBX 11 26 1 0
BITMAP
00C0
01E0
01E0
00C0
0000
0000
0000
0000
0000
0F00
3F00
2700
4700
CF00
0E00
0E00
1C00
1C00
1C00
3800
3800
7980
7100
7600
7C00
3800
ENDCHAR

STARTCHAR j
ENCODING 106
SWIDTH 240 0
DWIDTH 9 0
BBX 17 33 -6 -7
BITMAP
000300
000780
000780
000300
000000
000000
000000
000000
000000
003800
007C00
00DC00
019C00
011C00
003800
003800
003800
003000
007000
007000
007000
00E000
00E000
00E000
00E000
01C000
01C000
01C000
018000
038000
630000
F60000
7C0000
ENDCHAR

STARTCHAR k
ENCODING 107
SWIDTH 521 0
DWIDTH 20 0
BBX 17 26 2 0
BITMAP
0FC000
03C000
01C000
038000
038000
038000
070000
070000
070000
0E1F00
0E7F80
0EC780
0D0380
1E0380
1C0300
1C0E00
383C00
3FF000
3CC000
70E000
70E000
707080
607180
E03B00
E03E00
C01C00
ENDCHAR

STARTCHAR l
ENCODING 108
SWIDTH 240 0
DWIDTH 9 0
BBX 10 27 1 0
BITMAP
0040
1FC0
03C0
0380
0380
0380
0700
0700
0700
0E00
0E00
0E00
0C00
1C00
1C00
1C00
3800
3800
3800
7000
7000
7000
6300
E600
EC00
F800
7000
ENDCHAR

STARTCHAR m
ENCODING 109
SWIDTH 771 0
DWIDTH 29 0
BBX 27 17 2 0
BITMAP
1C0E0380
3E1F0FC0
6E2719C0
CE4731C0
8C8761C0
1D8E4380
1D0E8380
1A0F8700
3A0D0700
341E0700
381E0E00
381C0E00
703C0E60
70381CC0
70381D80
E0301F00
E0700E00
ENDCHAR

STARTCHAR n
ENCODING 110
SWIDTH 531 0
DWIDTH 20 0
BBX 19 17 1 0
BITMAP
060380
1F0FC0
3719C0
6731C0
C761C0
0EC380
0E8380
0D0380
1F0700
1E0700
1C0E00
1C0E00
380E60
381C40
381C80
701F00
700E00
ENDCHAR

STARTCHAR o
ENCODING 111
SWIDTH 448 0
DWIDTH 17 0
BBX 15 17 1 0
BITMAP
01F8
073C
0E1E
1C0E
380E
300E
700E
700E
F00E
E01C
E01C
E018
E038
E070
7060
79C0
3F00
ENDCHAR

STARTCHAR p
ENCODING 112
SWIDTH 490 0
DWIDTH 19 0
BBX 21 27 -3 -7
BITMAP
001C00
003800
003800
003FC0
007FF0
01F0F0
037078
066078
0CE038
00E038
00E038
01C038
01C030
01C070
0180E0
0380C0
038180
038700
071E00
07F000
070000
0E0000
0E0000
0E0000
1E0000
3E0000
FFC000
ENDCHAR

STARTCHAR q
ENCODING 113
SWIDTH 448 0
DWIDTH 17 0
BBX 16 24 1 -7
BITMAP
01FB
031F
060E
0C0E
180E
381C
301C
701C
601C
E038
E038
E078
E0F0
F1B0
7F70
7E60
3CE0
00E0
00E0
01C0
01C0
01C0
07E0
1FF8
ENDCHAR

STARTCHAR r
ENCODING 114
SWIDTH 344 0
DWIDTH 13 0
BBX 13 17 2 0
BITMAP
3830
7C78
5CF8
9DB8
9D30
1A00
1E00
3C00
3C00
3800
3800
7000
7000
7000
7000
E000
E000
ENDCHAR

STARTCHAR s
ENCODING 115
SWIDTH 333 0
DWIDTH 13 0
BBX 12 17 0 0
BITMAP
07E0
0CF0
1870
1830
1C00
1C00
1E00
0F00
0780
0780
03C0
01C0
01C0
E0C0
E0C0
F380
7E00
ENDCHAR

STARTCHAR t
ENCODING 116
SWIDTH 292 0
DWIDTH 11 0
BBX 11 20 2 0
BITMAP
0300
0700
0E00
7FE0
7FC0
0C00
1C00
1C00
1C00
3800
3800
3800
7000
7000
7000
E180
E300
E600
FC00
7000
ENDCHAR

STARTCHAR u
ENCODING 117
SWIDTH 531 0
DWIDTH 20 0
BBX 18 17 1 0
BITMAP
0E01C0
3F01C0
670380
4E0380
8E0780
0E0700
1C0F00
1C0F00
1C1600
381600
382E00
384E00
70DC40
719CC0
731D80
7E1F00
381E00
ENDCHAR

STARTCHAR v
ENCODING 118
SWIDTH 521 0
DWIDTH 20 0
BBX 18 17 1 0
BITMAP
1FE180
3FC3C0
7FC1C0
C081C0
C180C0
E180C0
E300C0
070080
060180
0E0180
1C0100
1C0300
1C0600
1C0C00
1F1800
0FF000
07C000
ENDCHAR

STARTCHAR w
ENCODING 119
SWIDTH 688 0
DWIDTH 26 0
BBX 24 18 2 0
BITMAP
000104
3FC386
7F838F
418387
C10787
C30703
E60703
E40603
0C0602
180402
380C06
301C04
70140C
702608
706618
78C7F0
3F87E0
1E0380
ENDCHAR

STARTCHAR x
ENCODING 120
SWIDTH 490 0
DWIDTH 19 0
BBX 19 17 0 0
BITMAP
0701C0
0F83E0
1B86E0
118C40
31C800
01D000
00F000
00E000
006000
00F000
01B000
017000
0338C0
463880
EC3D00
F81F00
701E00
ENDCHAR

STARTCHAR y
ENCODING 121
SWIDTH 479 0
DWIDTH 18 0
BBX 22 24 -4 -7
BITMAP
00E038
01E03C
03701C
06701C
04701C
007018
003818
003818
003810
003830
001C20
001C60
001CC0
001C80
000D80
000F00
000E00
000C00
001800
003000
006000
F1C000
FF0000
7C0000
ENDCHAR

STARTCHAR z
ENCODING 122
SWIDTH 490 0
DWIDTH 19 0
BBX 18 17 1 0
BITMAP
03E0C0
0FF8C0
08FF80
1C3F00
1C0600
0C0C00
003800
006000
018000
030000
0C0000
180E00
300E00
7F0600
7FC600
C3FC00
C0F000
ENDCHAR

STARTCHAR braceleft
ENCODING 123
SWIDTH 479 0
DWIDTH 18 0
BBX 16 34 8 -8
BITMAP
000F
0010
0020
0060
00C0
01C0
01C0
01C0
01C0
0380
0380
0380
0300
0300
0400
1800
E000
6000
1800
0C00
0C00
0C00
1C00
1C00
3800
3800
7000
7000
7000
6000
6000
3000
1800
0E00
ENDCHAR

STARTCHAR bar
ENCODING 124
SWIDTH 198 0
DWIDTH 8 0
BBX 2 34 3 -8
BITMAP
C0
C0
C0
C0
C0
C0
C0
C0
C0
C0
C0
C0
C0
C0
C0
C0
C0
C0
C0
C0
C0
C0
C0
C0
C0
C0
C0
C0
C0
C0
C0
C0
C0
C0
ENDCHAR

STARTCHAR braceright
ENCODING 125
SWIDTH 479 0
DWIDTH 18 0
BBX 16 34 3 -8
BITMAP
0070
000C
0004
0006
0006
000E
000E
000E
001C
001C
0038
0038
0030
0030
0010
0008
0003
000C
0010
0060
00C0
00C0
01C0
01C0
01C0
0180
0380
0380
0380
0300
0600
0C00
1800
E000
ENDCHAR

STARTCHAR asciitilde
ENCODING 126
SWIDTH 542 0
DWIDTH 21 0
BBX 19 6 1 9
BITMAP
1F0020
7FC060
67F0C0
C0FFC0
803F80
800E00
ENDCHAR

STARTCHAR space
ENCODING 160
SWIDTH 250 0
DWIDTH 11 0
BBX 0 0 0 0
BITMAP
ENDCHAR

STARTCHAR afii10023
ENCODING 161
SWIDTH 656 0
DWIDTH 25 0
BBX 27 32 0 0
BITMAP
000F0780
000F0780
000F0780
00070300
00000000
00000000
03FFFFE0
00FC03C0
007801C0
007800C0
00780080
00700080
00F00000
00F00000
00F00600
00E00400
01E00C00
01E07C00
01FFFC00
01C07800
03C03800
03C01800
03801800
07800000
07800000
07800000
07000300
0F000600
0F000E00
1F801E00
3FC0FC00
FFFFFC00
ENDCHAR

STARTCHAR afii10051
ENCODING 162
SWIDTH 771 0
DWIDTH 29 0
BBX 25 26 4 0
BITMAP
7FFFFF00
7C1E0F00
701C0600
603C0600
C03C0600
C0380600
00380000
00780000
00780000
0073F800
00FE3C00
00F80E00
00E00700
00E00700
01E00780
01E00780
01C00780
01C00780
03C00780
03C00700
03838700
07878F00
07878E00
0FC61C00
7FF33800
FFF3F000
ENDCHAR

STARTCHAR afii10052
ENCODING 163
SWIDTH 563 0
DWIDTH 21 0
BBX 24 33 1 0
BITMAP
0000FC
0001F8
0001E0
0003C0
000780
000000
000000
07FFFF
01FE1F
00F807
00F007
00F002
00F002
00E000
01E000
01E000
01E000
01C000
03C000
03C000
038000
038000
078000
078000
070000
0F0000
0F0000
0F0000
0E0000
1E0000
3F0000
FFC000
FFC000
ENDCHAR

STARTCHAR afii10053
ENCODING 164
SWIDTH 708 0
DWIDTH 27 0
BBX 25 26 3 0
BITMAP
001FF000
00781E00
01E00780
03C00380
07000380
0F000380
1E000100
3C000100
3C000000
78000000
78000000
70000000
FFFF8000
F0000000
F0000000
F0000000
F0000000
F0000000
F0003800
78007800
78007800
78007800
3C00F000
1E01E000
0F87C000
01FF0000
ENDCHAR

STARTCHAR afii10054
ENCODING 165
SWIDTH 604 0
DWIDTH 23 0
BBX 22 26 2 0
BITMAP
007FC0
00F0F8
03C03C
03801C
07801C
07800C
078008
03C008
03E000
01F000
01F800
00FC00
007E00
003F00
001F80
0007C0
0007C0
4003E0
6001E0
6001E0
E001E0
E001C0
F003C0
F80380
3F1F00
07FC00
ENDCHAR

STARTCHAR afii10055
ENCODING 166
SWIDTH 375 0
DWIDTH 14 0
BBX 17 26 0 0
BITMAP
03FF80
01FF00
007E00
007C00
007800
007800
007000
00F000
00F000
00F000
00E000
01E000
01E000
01E000
01C000
03C000
03C000
038000
078000
078000
078000
070000
0F0000
1F8000
3FC000
FFE000
ENDCHAR

STARTCHAR afii10056
ENCODING 167
SWIDTH 375 0
DWIDTH 14 0
BBX 19 32 1 0
BITMAP
03C1E0
03C1E0
03C1E0
03C1E0
000000
000000
03FF80
03FF00
00FC00
00F800
007000
00F000
00F000
00F000
00E000
01E000
01E000
01C000
03C000
03C000
03C000
038000
078000
078000
078000
070000
0F0000
0F0000
1F0000
1F0000
7F8000
FFE000
ENDCHAR

STARTCHAR afii10057
ENCODING 168
SWIDTH 479 0
DWIDTH 18 0
BBX 24 33 -3 -7
BITMAP
001C06
007F0F
00FF8F
0087EE
0183FC
01C0B8
01E070
01E070
00C0F0
0000F0
0000E0
003FFC
003FFC
0001C0
0003C0
0003C0
0003C0
000780
000780
000780
000700
000F00
000F00
000E00
001E00
001E00
001C00
003C00
003800
F07000
F0E000
7FC000
3E0000
ENDCHAR

STARTCHAR afii10058
ENCODING 169
SWIDTH 927 0
DWIDTH 35 0
BBX 36 26 -1 0
BITMAP
003FFFFC00
000F87F000
000703E000
000603C000
000603C000
0004038000
0004078000
0004078000
0008070000
0008070000
00080F0000
00180F0000
00100FFE00
00101E0F80
00301E03C0
00201E01E0
00201C00F0
00603C00F0
00403C00F0
00403C00F0
00C03800F0
00807801F0
61007803E0
F300F807C0
FE03FE1F80
7C07FFFC00
ENDCHAR

STARTCHAR afii10059
ENCODING 170
SWIDTH 970 0
DWIDTH 37 0
BBX 36 26 1 0
BITMAP
03FF3FF800
03FF1FF000
00FC07E000
00F807C000
00F0078000
00F0078000
00F0078000
00E0070000
01E00F0000
01E00F0000
01E00F0000
01C00E0000
03FFFFFE00
03C01E0F80
03801C03C0
07803C01E0
07803C00F0
07803C00F0
07003800F0
0F007800F0
0F007800F0
0F007001E0
1E00F003E0
3F01F807C0
7F83FC1F00
FFCFFFFC00
ENDCHAR

STARTCHAR afii10060
ENCODING 171
SWIDTH 802 0
DWIDTH 30 0
BBX 24 26 4 0
BITMAP
7FFFFE
7C783C
70781C
60700C
C0700C
C0F008
00F000
00E000
01E000
01E3F8
01EE3C
01D80E
03E00F
03C007
038007
038007
07800F
07800F
07000F
0F000E
0F001E
0E001E
1F003E
3F007E
FFE1FF
FFC1FF
ENDCHAR

STARTCHAR afii10061
ENCODING 172
SWIDTH 708 0
DWIDTH 27 0
BBX 29 33 0 0
BITMAP
00001F80
00003F00
00003C00
00007800
0000E000
00000000
00000000
03FF80F8
01FF01F8
007C01F8
007C0310
00780200
00780400
00700400
00F00C00
00F00800
00E01800
01E03000
01E06000
01FFC000
01C3C000
03C3C000
03C1E000
03C1E000
0380F000
0780F000
07807800
07007800
0F003C00
0F003C00
1F801E00
7FC01FC0
FFE00FC0
ENDCHAR

STARTCHAR hyphen
ENCODING 173
SWIDTH 365 0
DWIDTH 14 0
BBX 13 3 1 8
BITMAP
7FF8
7FF0
FFF0
ENDCHAR

STARTCHAR afii10062
ENCODING 174
SWIDTH 688 0
DWIDTH 26 0
BBX 27 33 4 0
BITMAP
00601C00
00F03C00
00F03C00
0078F800
001FC000
00000000
00000000
7FE07FE0
3FC03FC0
1F801F00
0F000E00
0F000E00
07000C00
07801800
07801000
03803000
03C06000
03C04000
01C08000
01E18000
01E30000
00E20000
00E40000
00FC0000
00F80000
00700000
00700000
00600000
00400000
E0800000
F1800000
FF000000
7C000000
ENDCHAR

STARTCHAR afii10145
ENCODING 175
SWIDTH 813 0
DWIDTH 31 0
BBX 34 32 0 -6
BITMAP
03FF81FFC0
01FF00FF80
007C007E00
0078003C00
0078003C00
0078003800
0070003800
00F0007800
00F0007800
00E0007000
00E000F000
01E000F000
01E000E000
01C000E000
03C001E000
03C001E000
038001C000
038003C000
078003C000
078003C000
0700038000
0F00078000
0F00078000
1F000F8000
7F803FE000
FFFFFFF000
000F000000
000E000000
000E000000
001E000000
001E000000
001C000000
ENDCHAR

STARTCHAR afii10017
ENCODING 176
SWIDTH 729 0
DWIDTH 28 0
BBX 28 26 -2 0
BITMAP
000001E0
000003C0
000007C0
00000DC0
00001BC0
00003BC0
000033C0
000063C0
0000C3C0
000183C0
00030380
00070380
000E0380
00080380
001FFF80
003FFF80
00600780
00E00780
01C00780
01800780
03000700
06000700
0E000700
1E000F80
7F001FC0
FFC0FFF0
ENDCHAR

STARTCHAR afii10018
ENCODING 177
SWIDTH 688 0
DWIDTH 26 0
BBX 27 26 0 0
BITMAP
03FFFFE0
00FF07C0
007C01C0
007800C0
007800C0
007000C0
00700000
00F00000
00F00000
00E00000
01E00000
01E00000
01FFE000
01C0F800
03C03C00
03C01E00
03C00F00
03800F00
07800F00
07800F00
07000F00
0F001E00
0F001E00
1F007C00
7FC1F800
FFFFC000
ENDCHAR

STARTCHAR afii10019
ENCODING 178
SWIDTH 698 0
DWIDTH 27 0
BBX 26 26 0 0
BITMAP
03FFFC00
01F81F00
00F80F80
007807C0
007003C0
007003C0
00F003C0
00F003C0
00E00780
01E00780
01E00F00
01C07C00
01FFE000
03C0F800
03803E00
03801E00
07800F00
07800F00
07000F00
07000F00
0F001F00
0F001E00
1F003C00
3F807800
FFFFF000
FFFF8000
ENDCHAR

STARTCHAR afii10020
ENCODING 179
SWIDTH 563 0
DWIDTH 21 0
BBX 24 26 1 0
BITMAP
07FFFF
01FE1F
00F807
00F007
00F002
00F002
00E000
01E000
01E000
01E000
01C000
03C000
03C000
038000
038000
078000
078000
070000
0F0000
0F0000
0F0000
0E0000
1E0000
3F0000
FFC000
FFC000
ENDCHAR

STARTCHAR afii10021
ENCODING 180
SWIDTH 677 0
DWIDTH 26 0
BBX 31 32 -3 -6
BITMAP
003FFFFE
000F83FC
000701F8
000600F0
000600F0
000400E0
000401E0
000401E0
000C01C0
000803C0
000803C0
001803C0
00100380
00100780
00300780
00200700
00200700
00600F00
00400F00
00400E00
00C01E00
00801E00
01801E00
03803E00
0FC0FF80
3FFFFFC0
3E0007C0
78000380
70000180
60000180
C0000180
C0000100
ENDCHAR

STARTCHAR afii10022
ENCODING 181
SWIDTH 656 0
DWIDTH 25 0
BBX 27 26 0 0
BITMAP
03FFFFE0
00FC03C0
007801C0
007800C0
007800C0
00780080
00700000
00F00000
00F00600
00E00400
01E00C00
01E07C00
01FFFC00
01C07800
03C03800
03C01800
03C01800
03800000
07800000
07800000
07000300
0F000600
0F000E00
1F801E00
3FC0FC00
FFFFFC00
ENDCHAR

STARTCHAR afii10024
ENCODING 182
SWIDTH 969 0
DWIDTH 37 0
BBX 39 26 0 0
BITMAP
01C03FF83C
03F01FF07E
03F80FC0FE
01980780C0
0008078180
0008070100
00080F0100
00080F0300
00080E0200
00081E0600
000C1E0400
00061E1800
0007FFF000
001F3CF000
001E3CF000
003C387800
0078787800
00F8783800
01F0783C00
01E0703C00
03C0F01E00
07C0F01E00
0F81F00F00
1F03F80F80
FE0FFE07E0
FE0FFE07C0
ENDCHAR

STARTCHAR afii10025
ENCODING 183
SWIDTH 569 0
DWIDTH 22 0
BBX 21 26 1 0
BITMAP
007F80
03E1E0
03C0F0
038070
030078
060078
060078
000078
0000F0
0000F0
0001E0
000780
00FC00
000F00
000380
0001C0
0001E0
0001E0
0001E0
6001E0
F003E0
F003C0
F807C0
780F80
3E3E00
0FF800
ENDCHAR

STARTCHAR afii10026
ENCODING 184
SWIDTH 813 0
DWIDTH 31 0
BBX 34 26 0 0
BITMAP
03FF81FFC0
01FF00FF80
007E007E00
007C003C00
0078007C00
007800F800
007001B800
00F0037800
00F0067800
00F00C7000
00E018F000
01E030F000
01E060E000
01C0C1E000
01C101E000
03C201E000
03C401C000
038803C000
079003C000
07A003C000
07C0038000
0F80078000
0F00078000
1F800FC000
FFE07FF000
FFE07FE000
ENDCHAR

STARTCHAR afii10027
ENCODING 185
SWIDTH 813 0
DWIDTH 31 0
BBX 34 33 0 0
BITMAP
0000C03800
0001E07800
0001E0F800
0000F1F000
00003F8000
0000000000
0000000000
03FF81FFC0
01FF00FF80
007E007E00
007C003C00
0078007C00
007800F800
007001B800
00F0037800
00F0067800
00F00C7000
00E018F000
01E030F000
01E060E000
01C0C1E000
01C101E000
03C201E000
03C401C000
038803C000
079003C000
07A003C000
07C0038000
0F80078000
0F00078000
1F800FC000
FFE07FF000
FFE07FE000
ENDCHAR

STARTCHAR afii10028
ENCODING 186
SWIDTH 708 0
DWIDTH 27 0
BBX 29 26 0 0
BITMAP
03FF80F8
01FF01F8
007C01F8
007C0310
00780200
00780400
00700400
00F00C00
00F00800
00E01800
01E03000
01E06000
01FFC000
01C3C000
03C3C000
03C1E000
03C1E000
0380F000
0780F000
07807800
07007800
0F003C00
0F003C00
1F801E00
7FC01FC0
FFE00FC0
ENDCHAR

STARTCHAR afii10029
ENCODING 187
SWIDTH 718 0
DWIDTH 27 0
BBX 31 26 -1 0
BITMAP
003FFFFE
000F83F8
000701F0
000601E0
000401E0
000401E0
000401C0
000C03C0
000803C0
000803C0
00180380
00100780
00100780
00100700
00300700
00200F00
00200F00
00600E00
00401E00
00401E00
00C01E00
00801C00
61803C00
F3007E00
FE01FF80
7C03FF80
ENDCHAR

STARTCHAR afii10030
ENCODING 188
SWIDTH 979 0
DWIDTH 37 0
BBX 40 26 -1 0
BITMAP
007F8000FF
003F8000FE
000F8001F8
000F8001F0
000F8003F0
001B8002E0
001B8006E0
0013800DE0
0033C009E0
0033C019E0
0063C031E0
0063C021E0
0041C061C0
00C1C0C1C0
00C1C081C0
0181E181C0
0181E303C0
0301E603C0
0300E603C0
0300EC03C0
0600E803C0
0600F803C0
0E00F003C0
1E00E007C0
3F00E00FE0
FFC0E03FF0
ENDCHAR

STARTCHAR afii10031
ENCODING 189
SWIDTH 823 0
DWIDTH 31 0
BBX 34 26 0 0
BITMAP
03FF81FFC0
00FF007F80
007C003E00
007C003E00
0078003C00
0078003C00
0078003C00
0070003800
00F0007800
00F0007800
00F0007000
01E000F000
01FFFFF000
01FFFFF000
01C000E000
03C001E000
03C001E000
03C001C000
038001C000
078003C000
078003C000
0700038000
0F00078000
1F800FC000
3F801FE000
FFE07FF000
ENDCHAR

STARTCHAR afii10032
ENCODING 190
SWIDTH 792 0
DWIDTH 30 0
BBX 26 26 4 0
BITMAP
001FF000
00787800
00E01E00
03800F00
07000700
0F000780
1E000380
1C0003C0
3C0003C0
380003C0
780003C0
780003C0
F80003C0
F00007C0
F00007C0
F0000780
F0000F80
F0000F00
F0000F00
70001E00
78003C00
38003800
3C007000
1E01E000
07878000
01FE0000
ENDCHAR

STARTCHAR afii10033
ENCODING 191
SWIDTH 813 0
DWIDTH 31 0
BBX 34 26 0 0
BITMAP
03FFFFFFC0
00FF00FF00
007C003E00
0078003C00
0078003C00
0078003800
0070007800
00F0007800
00F0007000
00E000F000
01E000F000
01E000F000
01E000E000
01C001E000
03C001E000
03C001E000
03C001C000
038003C000
078003C000
0780038000
0700078000
0F00078000
0F000F8000
1F800F8000
FFE07FF000
FFE07FE000
ENDCHAR

STARTCHAR afii10034
ENCODING 192
SWIDTH 615 0
DWIDTH 23 0
BBX 26 26 0 0
BITMAP
03FFFC00
00F83F00
00780F80
00780780
007803C0
007003C0
00F003C0
00F003C0
00F003C0
00E00780
01E00F80
01E01F00
01C7FC00
01C3F000
03C00000
03C00000
03800000
07800000
07800000
07800000
07000000
0F000000
0F000000
1F800000
FFF00000
FFE00000
ENDCHAR

STARTCHAR afii10035
ENCODING 193
SWIDTH 708 0
DWIDTH 27 0
BBX 26 26 3 0
BITMAP
000FF800
007C1F00
00F007C0
03C003C0
07800180
0F000180
1E000180
1E000180
3C000000
3C000000
78000000
78000000
F8000000
F0000000
F0000000
F0000000
F0000000
F0000600
F0000C00
78000C00
78001C00
3C003C00
1C003800
0F00F000
07C3E000
01FF0000
ENDCHAR

STARTCHAR afii10036
ENCODING 194
SWIDTH 667 0
DWIDTH 25 0
BBX 25 26 4 0
BITMAP
3FFFFF80
3C1E0F80
701E0380
701E0300
601C0300
C03C0300
003C0000
003C0000
00380000
00780000
00780000
00700000
00F00000
00F00000
00F00000
00E00000
01E00000
01E00000
01E00000
01C00000
03C00000
03C00000
07C00000
07C00000
1FE00000
7FF80000
ENDCHAR

STARTCHAR afii10037
ENCODING 195
SWIDTH 688 0
DWIDTH 26 0
BBX 27 26 4 0
BITMAP
7FE07FE0
3FC03FC0
1F801F00
0F000E00
0F000E00
07000C00
07801800
07801000
03803000
03C06000
03C04000
01C08000
01E18000
01E30000
00E20000
00E40000
00FC0000
00F80000
00700000
00700000
00600000
00400000
E0800000
F1800000
FF000000
7C000000
ENDCHAR

STARTCHAR afii10038
ENCODING 196
SWIDTH 917 0
DWIDTH 35 0
BBX 31 26 4 0
BITMAP
0007FF00
0003FE00
0000F800
0000F000
003FFF00
01FCE7C0
0F80E0F0
1E01E078
3C01E03C
7C01C01C
7803C01E
F803C01E
F003C01E
F003801E
F007801E
F007803C
7007003C
78070078
3C0F00F0
1F0E03C0
07EFFF00
00FFF000
001E0000
003E0000
01FFC000
01FFC000
ENDCHAR

STARTCHAR afii10039
ENCODING 197
SWIDTH 781 0
DWIDTH 30 0
BBX 34 26 -1 0
BITMAP
00FFE0FFC0
007F807F80
001F003E00
001F003C00
000F003000
000F006000
000780C000
0007818000
0003C70000
0003EE0000
0001E80000
0001F00000
0000F00000
0001F80000
0003B80000
00067C0000
000C3C0000
00183E0000
00701E0000
00E01F0000
01C00F0000
03800F8000
0F80078000
1F800FC000
7FE03FF800
FFE07FF800
ENDCHAR

STARTCHAR afii10040
ENCODING 198
SWIDTH 813 0
DWIDTH 31 0
BBX 34 32 0 -6
BITMAP
03FF81FFC0
01FF80FF80
007C007E00
007C003C00
0078003C00
0078003800
0070007800
00F0007800
00F0007000
00F0007000
00E000F000
01E000F000
01E000E000
01E001E000
01C001E000
03C001E000
03C001C000
038003C000
078003C000
0780038000
0780038000
0F00078000
0F00078000
1F800F8000
7FC03FE000
FFFFFFF000
000001F000
000000F000
0000006000
0000006000
0000006000
0000004000
ENDCHAR

STARTCHAR afii10041
ENCODING 199
SWIDTH 771 0
DWIDTH 29 0
BBX 27 26 5 0
BITMAP
FFE0FFE0
7FC07FC0
3F001F00
1E001F00
1E001E00
3C001E00
3C001C00
3C001C00
38003C00
78003C00
78003800
78007800
7800F800
3C01F800
3C037000
1F9EF000
07F8F000
0000E000
0000E000
0001E000
0001E000
0001C000
0003C000
0007E000
001FF800
003FF800
ENDCHAR

STARTCHAR afii10042
ENCODING 200
SWIDTH 1000 0
DWIDTH 38 0
BBX 41 26 0 0
BITMAP
01FF9FF9FF80
01FF1FF1FF00
007C07C07C00
007C07C07800
007807807800
007807807800
007007007000
00F00F00F000
00F00F00F000
00F00F00E000
00E00E00E000
01E01E01E000
01E01E01E000
01C01C01C000
03C03C03C000
03C03C03C000
03C03C03C000
078038038000
078078078000
078078078000
070078070000
0F00F00F0000
0F00F00F0000
1F01F01F0000
3F87FC7FC000
FFFFFFFFE000
ENDCHAR

STARTCHAR afii10043
ENCODING 201
SWIDTH 1000 0
DWIDTH 38 0
BBX 41 32 0 -6
BITMAP
01FF9FF9FF80
01FF1FF1FF00
007C07C07C00
007C07C07800
007807807800
007807807800
007007007000
00F00F00F000
00F00F00F000
00F00F00E000
00E00E00E000
01E01E01E000
01E01E01E000
01C01C01C000
03C03C03C000
03C03C03C000
03C03C03C000
078038038000
078078078000
078078078000
070078070000
0F00F00F0000
0F00F00F0000
1F01F01F0000
3F87FC7FC000
FFFFFFFFE000
00000003E000
00000001C000
00000001C000
00000000C000
000000008000
000000008000
ENDCHAR

STARTCHAR afii10044
ENCODING 202
SWIDTH 741 0
DWIDTH 28 0
BBX 24 26 4 0
BITMAP
3FFFC0
7FBF00
783C00
707800
E07800
C07800
007000
00F000
00F000
00F000
00E000
01E000
01FFE0
01C0F8
03C03C
03C01E
03C00F
03800F
07800F
07800F
07800F
0F001E
0F003E
1F007C
3FC1F8
FFFFC0
ENDCHAR

STARTCHAR afii10045
ENCODING 203
SWIDTH 979 0
DWIDTH 37 0
BBX 40 26 0 0
BITMAP
03FFC007FF
01FF8003FE
00FC0000F8
00780000F8
00780000F0
00700000F0
00F00000E0
00F00001E0
00F00001E0
00E00001E0
01E00001C0
01E00003C0
01FFE003C0
03C0F80380
03C03C0380
03C01E0780
03800F0780
07800F0700
07800F0F00
07800F0F00
0F000F0F00
0F001E0E00
0F003E1E00
1F007C3F00
7FC1F87F80
FFFFE1FFC0
ENDCHAR

STARTCHAR afii10046
ENCODING 204
SWIDTH 642 0
DWIDTH 24 0
BBX 24 26 0 0
BITMAP
03FFC0
01FF80
00FC00
007800
007800
007000
00F000
00F000
00F000
00E000
01E000
01E000
01FFE0
03C0F8
03C03C
03C01E
03800F
07800F
07800F
07800F
0F000F
0F001E
0F003E
1F007C
7FC1F8
FFFFE0
ENDCHAR

STARTCHAR afii10047
ENCODING 205
SWIDTH 708 0
DWIDTH 27 0
BBX 25 26 2 0
BITMAP
007FC000
01F07000
07C03C00
07801E00
07000E00
06000F00
06000700
04000780
00000780
00000780
00000780
00000780
00FFFF80
00000F80
00000F00
00000F00
00001F00
00001E00
60003E00
F0003C00
F0007C00
F000F800
7801F000
7C03E000
1E1F8000
07FC0000
ENDCHAR

STARTCHAR afii10048
ENCODING 206
SWIDTH 1135 0
DWIDTH 43 0
BBX 43 26 0 0
BITMAP
03FFC00FF800
01FF803C3C00
007E00F00F00
007C01C00780
0078038003C0
0078070003C0
00780F0001E0
00701E0001E0
00F01E0001E0
00F03C0001E0
00E03C0001E0
01FFFC0001E0
01FFF80001E0
01E0780003E0
01C0780003C0
03C0780003C0
03C0780007C0
038078000780
038078000F80
078038000F00
07803C001E00
07001C003C00
0F001E007800
1F800F00F000
7FE003C3C000
FFE001FF0000
ENDCHAR

STARTCHAR afii10049
ENCODING 207
SWIDTH 698 0
DWIDTH 27 0
BBX 30 26 -1 0
BITMAP
000FFFFC
003F01F8
007801E0
00F001E0
01E001C0
01E003C0
01E003C0
01E00380
01E00380
00F00780
00780780
00370700
000FFF00
001F0F00
003E0F00
003C0E00
00781E00
00F01E00
01F01C00
01E01C00
03C03C00
07C03C00
0F807C00
1F00FC00
7E03FF80
FC03FF00
ENDCHAR

STARTCHAR afii10065
ENCODING 208
SWIDTH 521 0
DWIDTH 20 0
BBX 18 17 1 0
BITMAP
00F980
038F80
060F00
0C0700
1C0F00
180E00
300E00
700E00
701C00
601C00
E03C00
E05C00
E058C0
F0B980
7F3B00
7F3E00
3C1C00
ENDCHAR

STARTCHAR afii10066
ENCODING 209
SWIDTH 448 0
DWIDTH 17 0
BBX 17 26 2 0
BITMAP
000080
003F80
01FF00
03FC00
070000
0E0000
080000
180000
100000
31F800
233C00
261C00
6C0E00
580E00
580E00
700E00
F00E00
E00E00
E01C00
E01C00
E01800
E03800
E07000
706000
79C000
1F0000
ENDCHAR

STARTCHAR afii10067
ENCODING 210
SWIDTH 385 0
DWIDTH 15 0
BBX 13 17 1 0
BITMAP
01E0
0638
0C38
1C38
3830
3860
71C0
7700
7FC0
F0E0
E070
E070
E070
E0F0
60E0
31C0
1F80
ENDCHAR

STARTCHAR afii10068
ENCODING 211
SWIDTH 302 0
DWIDTH 11 0
BBX 11 17 1 0
BITMAP
07C0
09C0
10E0
00E0
00C0
00C0
0180
0600
0C00
3800
7000
6000
E000
E080
E100
7E00
3C00
ENDCHAR

STARTCHAR afii10069
ENCODING 212
SWIDTH 449 0
DWIDTH 17 0
BBX 16 27 1 0
BITMAP
0080
00C0
0060
0030
0018
000C
000E
0006
0006
0007
01F7
071B
0C0F
1C07
3807
3007
7007
7006
E006
E00E
E00C
E01C
E018
F038
7070
78C0
1F80
ENDCHAR

STARTCHAR afii10070
ENCODING 213
SWIDTH 385 0
DWIDTH 15 0
BBX 13 17 1 0
BITMAP
00F0
03F8
0638
0C18
1818
1830
3070
70C0
6780
7C00
E000
E000
E018
F060
F8E0
7FC0
3F00
ENDCHAR

STARTCHAR afii10072
ENCODING 214
SWIDTH 875 0
DWIDTH 33 0
BBX 34 17 0 0
BITMAP
07E0380F80
0FF03019C0
18F87031C0
30787061C0
603870C000
4038E1C000
0038E18000
0038E38000
003FFF8000
0071C70000
0071C70000
00E1C70000
00E3870180
E1C3878300
E38387C600
E60303FC00
7C0701F800
ENDCHAR

STARTCHAR afii10073
ENCODING 215
SWIDTH 365 0
DWIDTH 14 0
BBX 12 17 1 0
BITMAP
0FC0
18E0
3070
0070
0070
00E0
01C0
0E00
0180
00C0
00C0
00E0
00E0
C0E0
E1C0
E380
7F00
ENDCHAR

STARTCHAR afii10074
ENCODING 216
SWIDTH 531 0
DWIDTH 20 0
BBX 18 17 1 0
BITMAP
0E01C0
1F01C0
270380
4E0380
8E0780
0E0700
1C0F00
1C0F00
1C1600
381600
382E00
384E00
70DC40
719CC0
731D80
7E1F00
381E00
ENDCHAR

STARTCHAR afii10075
ENCODING 217
SWIDTH 531 0
DWIDTH 20 0
BBX 18 24 1 0
BITMAP
00C080
01E180
01E300
00FE00
003800
000000
000000
0E01C0
1F01C0
260380
4E0380
8E0780
0E0700
1C0F00
1C0F00
1C1600
381600
382E00
384E00
70DC40
719CC0
731D80
7E1F00
381E00
ENDCHAR

STARTCHAR afii10076
ENCODING 218
SWIDTH 489 0
DWIDTH 19 0
BBX 17 17 2 0
BITMAP
000300
3F0780
0E0F80
0E0800
1C1800
1C1000
186000
1FC000
39C000
38E000
30E000
707000
707000
707000
E03800
E03C00
E01E00
ENDCHAR

STARTCHAR afii10077
ENCODING 219
SWIDTH 490 0
DWIDTH 19 0
BBX 18 17 -1 0
BITMAP
0007C0
0019C0
002180
004380
008380
018380
010700
010700
030700
020E00
020E00
060E00
040C40
0C1C80
F81D80
F01F00
E00C00
ENDCHAR

STARTCHAR afii10078
ENCODING 220
SWIDTH 586 0
DWIDTH 22 0
BBX 22 17 0 0
BITMAP
00E01C
00E03C
00E038
01E058
0160D8
0160B8
02E170
026370
026270
046460
0464E0
0C68E0
0878C4
1871C8
F061D8
F061F0
E040C0
ENDCHAR

STARTCHAR afii10079
ENCODING 221
SWIDTH 525 0
DWIDTH 20 0
BBX 18 17 2 0
BITMAP
7F01C0
0E0380
0E0380
0E0380
1C0700
1C0700
1C0700
380E00
3FFE00
380E00
301C00
701C00
701C00
703980
E03B00
E03E00
E03C00
ENDCHAR

STARTCHAR afii10080
ENCODING 222
SWIDTH 448 0
DWIDTH 17 0
BBX 15 17 1 0
BITMAP
01F8
073C
0E1E
1C0E
380E
300E
700E
700E
F00E
E01C
E01C
E018
E038
E070
7060
79C0
3F00
ENDCHAR

STARTCHAR afii10081
ENCODING 223
SWIDTH 531 0
DWIDTH 20 0
BBX 19 17 1 0
BITMAP
060380
1F0FC0
3719C0
6731C0
C761C0
0EC380
0E8380
0D0380
1F0700
1E0700
1C0E00
1C0E00
380E60
381C40
381C80
701F00
700E00
ENDCHAR

STARTCHAR afii10082
ENCODING 224
SWIDTH 490 0
DWIDTH 19 0
BBX 21 27 -3 -7
BITMAP
003800
003800
003800
003FC0
007FE0
01F0F0
037078
06E038
1CE038
00E038
00C038
01C038
01C030
01C070
038060
0380C0
038180
030700
071E00
07F000
070000
0E0000
0E0000
0E0000
1E0000
3E0000
FFC000
ENDCHAR

STARTCHAR afii10083
ENCODING 225
SWIDTH 385 0
DWIDTH 15 0
BBX 13 17 1 0
BITMAP
01F0
0338
0638
0C38
1800
3800
3000
7000
6000
E000
E000
E000
E038
F060
79C0
7F80
3F00
ENDCHAR

STARTCHAR afii10084
ENCODING 226
SWIDTH 771 0
DWIDTH 29 0
BBX 27 17 2 0
BITMAP
1C0E0380
3E1F0FC0
6E2719C0
CE4731C0
8C866180
1D8E4380
1D0E8380
1A0F8700
3A0D0700
341E0700
381E0E00
381C0E00
703C1E60
70381CC0
70381D80
E0301F00
E0700E00
ENDCHAR

STARTCHAR afii10085
ENCODING 227
SWIDTH 479 0
DWIDTH 18 0
BBX 22 24 -4 -7
BITMAP
00E038
01E03C
03701C
06701C
04701C
007018
003818
003818
003810
003830
001C20
001C60
001CC0
001C80
000D80
000F00
000E00
000C00
001800
003000
006000
F1C000
FF0000
7C0000
ENDCHAR

STARTCHAR afii10086
ENCODING 228
SWIDTH 625 0
DWIDTH 24 0
BBX 22 33 1 -7
BITMAP
000078
0000DC
00018C
000380
000300
000700
000700
000E00
000E00
03CEE0
073DF8
0C3F38
1C1C1C
383C1C
38381C
70381C
70381C
70701C
E07038
E07038
E0E070
E0E070
E1E0E0
73E1C0
7ED380
39DF00
018000
038000
030000
430000
C60000
EE0000
780000
ENDCHAR

STARTCHAR afii10087
ENCODING 229
SWIDTH 490 0
DWIDTH 19 0
BBX 19 17 0 0
BITMAP
0701C0
0F83E0
1B86E0
118C40
31C800
01D000
00F000
00E000
006000
00F000
01B000
017000
0338C0
463880
EC3D00
F81F00
701E00
ENDCHAR

STARTCHAR afii10088
ENCODING 230
SWIDTH 521 0
DWIDTH 20 0
BBX 18 23 1 -6
BITMAP
0E01C0
3F01C0
260380
4E0380
8E0780
0E0700
1C0F00
1C0F00
1C1600
381600
382E00
384C00
30DC40
719C80
731F80
7E1F00
380400
000C00
001C00
001800
003800
003000
006000
ENDCHAR

STARTCHAR afii10089
ENCODING 231
SWIDTH 490 0
DWIDTH 19 0
BBX 18 17 1 0
BITMAP
1C0380
3E0380
4E0700
CE0700
1C0700
1C0600
180E00
380E00
383E00
3CFC00
1F9C00
001C00
0038C0
003980
003B00
003E00
001C00
ENDCHAR

STARTCHAR afii10090
ENCODING 232
SWIDTH 792 0
DWIDTH 30 0
BBX 29 17 1 0
BITMAP
0E01C070
1F01C070
270380E0
470380E0
8E0381E0
0E0781C0
0E0703C0
1C0B02C0
1C1705C0
3C1E0D80
382E0B80
386E1380
784C3718
709C6710
731CC720
7E1F87C0
380E0380
ENDCHAR

STARTCHAR afii10091
ENCODING 233
SWIDTH 792 0
DWIDTH 30 0
BBX 29 23 1 -6
BITMAP
0E01C070
1F01C070
270380E0
470380E0
CE0381E0
0E0781C0
0E0703C0
1C0B02C0
1C1B05C0
1C1E0D80
382E0B80
386E1380
38CC3718
709C6710
731CC760
7E1F87C0
380E0280
00000100
00000300
00000700
00000600
00000E00
00001800
ENDCHAR

STARTCHAR afii10092
ENCODING 234
SWIDTH 396 0
DWIDTH 15 0
BBX 13 17 1 0
BITMAP
3C80
7F80
5E80
8100
0300
0200
0400
0BE0
1E70
3C38
3838
7038
7038
7070
7070
38C0
1F80
ENDCHAR

STARTCHAR afii10093
ENCODING 235
SWIDTH 624 0
DWIDTH 24 0
BBX 21 17 3 0
BITMAP
060030
7C03F0
1C00F0
1C00E0
1800E0
3800E0
3801C0
37C1C0
7CE1C0
787180
707380
E07380
E07318
E0E730
E1E760
73C7C0
3F0380
ENDCHAR

STARTCHAR afii10094
ENCODING 236
SWIDTH 406 0
DWIDTH 15 0
BBX 12 17 3 0
BITMAP
0600
7C00
1C00
1C00
1800
3800
3800
37C0
7CE0
7870
7070
E070
E070
E0E0
E1E0
73C0
3F00
ENDCHAR

STARTCHAR afii10095
ENCODING 237
SWIDTH 396 0
DWIDTH 15 0
BBX 14 17 0 0
BITMAP
01E0
07F8
0C38
301C
001C
001C
001C
001C
07FC
0038
0038
0030
4070
E060
E0C0
E380
3E00
ENDCHAR

STARTCHAR afii10096
ENCODING 238
SWIDTH 667 0
DWIDTH 25 0
BBX 23 17 2 0
BITMAP
1F01F8
7E073C
0E0C1E
0E1C0E
0E380E
1C300E
1C700E
18700E
1FF00C
38E01C
38E01C
30E018
70E038
70E070
607060
E079C0
E03F00
ENDCHAR

STARTCHAR afii10097
ENCODING 239
SWIDTH 542 0
DWIDTH 21 0
BBX 20 17 0 0
BITMAP
00FFE0
03C0E0
0380E0
0700C0
0701C0
0701C0
0301C0
01C380
00FF80
030380
020300
040700
0C0710
080620
F80E40
F00F80
E00700
ENDCHAR

STARTCHAR afii61352
ENCODING 240
SWIDTH 1031 0
DWIDTH 39 0
BBX 37 26 1 0
BITMAP
00FE001C00
00FF003E00
003F007F00
001F004600
001700C000
0017808000
0017808000
00378181E0
0023810770
0023C10E38
0063C10C38
0043C31C38
0041C21838
00C1E23838
00C1E63830
0081E43870
0080E43860
0180F438E0
0100FC1DC0
0100F80F00
0300780000
0300780000
0200780000
FE00300000
FC0030FF80
780030FF80
ENDCHAR

STARTCHAR afii10071
ENCODING 241
SWIDTH 385 0
DWIDTH 15 0
BBX 15 24 1 0
BITMAP
030C
079E
079E
030C
0000
0000
0000
00F0
03F8
0638
0C18
1818
1030
3070
71C0
6700
7C00
E000
E000
E038
E060
F1C0
7F80
3F00
ENDCHAR

STARTCHAR afii10099
ENCODING 242
SWIDTH 510 0
DWIDTH 19 0
BBX 17 33 1 -7
BITMAP
0FE000
0FC000
01C000
018000
038000
038000
3FFF80
070000
070000
070000
0E0000
0E3E00
0EFF00
0F8700
1E0380
1C0380
1C0380
380380
380380
380380
700700
700700
700E00
600E00
E01C00
E01C00
003800
007000
006000
00C000
038000
0F0000
040000
ENDCHAR

STARTCHAR afii10100
ENCODING 243
SWIDTH 448 0
DWIDTH 17 0
BBX 18 25 0 0
BITMAP
000F00
000E00
001C00
001800
001000
000000
000000
000000
1FFFC0
07C180
038080
070080
070000
070000
060000
0E0000
0E0000
0E0000
1C0000
1C0000
1C0000
1C0000
380000
7C0000
FE0000
ENDCHAR

STARTCHAR afii10101
ENCODING 244
SWIDTH 406 0
DWIDTH 15 0
BBX 15 17 1 0
BITMAP
01F8
070C
0E06
1C00
3800
3800
7000
7000
7FE0
E000
E000
E000
E060
E070
70E0
70E0
1F80
ENDCHAR

STARTCHAR afii10102
ENCODING 245
SWIDTH 333 0
DWIDTH 13 0
BBX 12 17 0 0
BITMAP
07E0
0CF0
1870
1830
1C00
1C00
1E00
0F00
0780
0780
03C0
01C0
01C0
E0C0
E0C0
F380
7E00
ENDCHAR

STARTCHAR afii10103
ENCODING 246
SWIDTH 271 0
DWIDTH 10 0
BBX 11 26 1 0
BITMAP
00C0
01E0
01E0
00C0
0000
0000
0000
0000
0000
0F00
3F00
2700
4700
8F00
0E00
0E00
1C00
1C00
1C00
3800
3800
7980
7100
7600
7C00
3800
ENDCHAR

STARTCHAR afii10104
ENCODING 247
SWIDTH 271 0
DWIDTH 10 0
BBX 13 24 1 0
BITMAP
0C30
1E78
1E78
0C30
0000
0000
0000
0F00
3F00
2700
4700
8E00
0E00
0E00
1C00
1C00
1C00
3800
3800
7980
7300
7600
7C00
3800
ENDCHAR

STARTCHAR afii10105
ENCODING 248
SWIDTH 240 0
DWIDTH 9 0
BBX 17 33 -6 -7
BITMAP
000300
000780
000780
000300
000000
000000
000000
000000
000000
003800
007C00
00DC00
019C00
011C00
003800
003800
003800
003000
007000
007000
007000
00E000
00E000
00E000
00C000
01C000
01C000
01C000
018000
038000
630000
F60000
7C0000
ENDCHAR

STARTCHAR afii10106
ENCODING 249
SWIDTH 663 0
DWIDTH 25 0
BBX 25 18 -1 0
BITMAP
0000E000
000F6000
0031C000
0061C000
00C1C000
00838000
01038000
01033E00
0107C700
02078380
02070380
02060380
040E0380
040E0780
0C0E0700
F8060E00
F0071C00
E001F000
ENDCHAR

STARTCHAR afii10107
ENCODING 250
SWIDTH 691 0
DWIDTH 26 0
BBX 23 17 2 0
BITMAP
0300C0
3F0F80
0E0380
0E0380
0E0300
0C0700
1C0700
1C06FC
1FFF9C
380E0E
380E0E
381C0E
701C0E
701C1C
700C1C
E00E78
E007E0
ENDCHAR

STARTCHAR afii10108
ENCODING 251
SWIDTH 500 0
DWIDTH 19 0
BBX 17 26 1 0
BITMAP
0FE000
0FC000
01C000
01C000
038000
038000
3FFF80
070000
070000
070000
0E0000
0E3C00
0EFE00
0F8F00
1E0700
1C0700
1C0700
380E00
380E00
381E00
701C00
701C00
703880
603900
E03E00
E03C00
ENDCHAR

STARTCHAR afii10109
ENCODING 252
SWIDTH 489 0
DWIDTH 19 0
BBX 17 25 2 0
BITMAP
001E00
001C00
003800
003000
006000
000000
000000
000000
000300
3F0780
0E0F80
0E0800
1C1800
1C1000
186000
1FC000
39C000
38E000
30E000
707000
707000
707000
E03800
E03C00
E01E00
ENDCHAR

STARTCHAR section
ENCODING 253
SWIDTH 458 0
DWIDTH 17 0
BBX 24 34 -3 -7
BITMAP
0000FC
0003FE
00061F
000E0F
001C06
001C00
003C00
002C00
006C00
006400
004600
00C600
00C600
00C300
00C300
00C300
00C180
00C180
006180
006180
006180
007180
003180
003180
001180
001B00
001B00
001A00
001E00
301C00
783800
FC7000
3FE000
0F0000
ENDCHAR

STARTCHAR afii10110
ENCODING 254
SWIDTH 479 0
DWIDTH 18 0
BBX 22 31 -4 -7
BITMAP
003010
003820
003C40
001F80
000F00
000000
000000
00E038
01E03C
03701C
06701C
04701C
007018
003818
003818
003810
003830
001C20
001C40
001CC0
001C80
000D00
000F00
000E00
000C00
001800
003000
006000
F1C000
FF0000
7C0000
ENDCHAR

STARTCHAR afii10193
ENCODING 255
SWIDTH 531 0
DWIDTH 20 0
BBX 18 23 1 -6
BITMAP
0E01C0
1F01C0
270380
470380
8E0380
0E0780
0E0700
1C0F00
1C0B00
1C1600
382E00
382E00
784C40
709CC0
719D80
7F1F00
3C1E00
0C0000
180000
180000
380000
300000
E00000
ENDCHAR
ENDFONT
